<svg version="1.1" id="Layer_1" xmlns="http://www.w3.org/2000/svg" xmlns:xlink="http://www.w3.org/1999/xlink" x="0px" y="0px"
	 width="100%" viewBox="0 0 422 98" enable-background="new 0 0 422 98" xml:space="preserve">
<path fill="#F7F8F9" opacity="1.000000" stroke="none" 
	d="
M1.218917,93.282364 
	C1.000000,64.979103 1.000000,36.958210 1.000000,8.468657 
	C2.326310,2.276339 6.564709,1.949481 11.413778,1.952794 
	C106.862450,2.018006 202.311188,2.002381 297.759918,2.002161 
	C335.739502,2.002073 373.719116,1.994641 411.698700,2.007477 
	C420.684082,2.010513 422.483704,3.838857 422.485596,12.878443 
	C422.491058,38.697906 422.495605,64.517372 422.478485,90.336823 
	C422.476135,93.899048 422.527283,97.558380 417.434784,98.767029 
	C280.645782,99.000000 144.291550,99.000000 7.468657,99.000000 
	C4.244274,98.110962 1.391317,97.321426 1.218917,93.282364 
z"/>
<path fill="#3871E0" opacity="1.000000" stroke="none" 
	d="
M417.499481,99.000000 
	C420.844299,96.284866 422.133545,92.674026 422.094940,87.908455 
	C421.893951,63.093582 422.009430,38.276211 421.996399,13.459722 
	C421.992249,5.590198 419.402039,3.003375 411.514038,3.003020 
	C278.104553,2.997012 144.695053,3.008565 11.285586,2.953076 
	C7.122261,2.951344 3.721821,3.834238 1.316680,7.858277 
	C0.999999,1.000000 0.999999,1.000000 7.986881,1.000000 
	C144.858505,1.000000 281.730164,1.021711 418.601654,0.891572 
	C422.567291,0.887801 423.105591,2.026440 423.086945,5.593776 
	C422.933258,35.065331 422.891602,64.538879 423.120972,94.009453 
	C423.154053,98.258324 422.210480,99.887115 417.499481,99.000000 
z"/>
<path fill="#3F76E1" opacity="1.000000" stroke="none" 
	d="
M1.000000,93.499474 
	C2.296855,95.379959 3.797686,97.562279 6.726021,98.813461 
	C3.402760,99.249268 -0.515862,99.884109 1.000000,93.499474 
z"/>
<path fill="#5F8CED" opacity="1.000000" stroke="none" 
	d="
M34.816486,31.959045 
	C39.332233,31.103945 43.194279,31.936609 46.704563,34.087276 
	C48.019749,34.893055 50.595119,35.487156 49.058296,37.990341 
	C47.803104,40.034801 46.398724,39.983727 44.137135,38.630154 
	C39.487518,35.847336 34.413784,36.107655 30.043539,39.362576 
	C25.687284,42.607075 24.184464,47.284615 25.131313,52.659466 
	C26.114834,58.242496 29.718830,61.485390 34.982044,62.704990 
	C39.849953,63.832996 44.229355,62.694084 47.407681,58.434731 
	C48.321918,57.209538 49.402000,55.914867 48.696056,54.387314 
	C48.013531,52.910442 46.354496,53.538990 45.097290,53.473633 
	C43.269253,53.378586 41.433655,53.439442 39.601990,53.400528 
	C37.739483,53.360962 37.590454,52.050983 37.561260,50.623180 
	C37.529652,49.077183 37.951290,48.068642 39.780872,48.092430 
	C43.944904,48.146572 48.110085,48.109825 52.274792,48.115463 
	C55.011017,48.119167 54.902565,50.048164 54.894295,51.952084 
	C54.862774,59.207718 50.194454,65.404800 43.128010,67.536125 
	C35.751385,69.761009 26.593788,66.486511 22.409361,60.127735 
	C14.981129,48.839550 20.607384,35.660641 34.816486,31.959045 
z"/>
<path fill="#628EED" opacity="1.000000" stroke="none" 
	d="
M113.123756,63.795822 
	C109.652138,58.847294 108.966515,54.024982 112.261238,49.168465 
	C115.454323,44.461754 119.891167,43.088211 125.293640,44.959335 
	C125.607544,45.068054 125.988007,45.324158 126.236206,45.233707 
	C133.785751,42.482502 132.882004,47.648232 132.738708,52.134884 
	C132.553253,57.941135 133.169342,63.770924 132.269592,69.555443 
	C131.579819,73.989967 128.786560,76.701843 124.672882,77.861526 
	C120.422813,79.059677 116.356125,78.345802 113.353012,74.837051 
	C112.507027,73.848633 109.921371,72.760445 111.938034,70.940323 
	C113.242493,69.763008 115.000153,69.453331 116.716469,71.291153 
	C118.822670,73.546463 121.699013,73.950867 124.513268,72.520615 
	C126.899529,71.307877 127.470535,69.168495 126.822693,66.225708 
	C121.752502,68.784584 117.207603,68.202644 113.123756,63.795822 
z"/>
<path fill="#6B6E72" opacity="1.000000" stroke="none" 
	d="
M361.404785,62.982609 
	C361.405273,57.498329 361.441986,52.510281 361.392029,47.523102 
	C361.362518,44.579323 362.502197,43.153156 365.181091,45.076618 
	C366.512268,46.032440 367.104095,45.483185 368.163513,45.056194 
	C373.676208,42.834347 377.631500,43.717529 380.593445,47.709251 
	C384.106262,52.443436 383.898804,58.957451 380.094635,63.368881 
	C376.923065,67.046738 372.875183,67.573128 367.508423,65.025597 
	C367.083069,64.823677 366.603058,64.736809 365.738922,64.470039 
	C365.738922,67.475861 365.712067,70.269630 365.749451,73.062546 
	C365.770386,74.628464 365.280548,75.633087 363.516327,75.623466 
	C361.670959,75.613396 361.393677,74.434677 361.402405,72.955742 
	C361.421021,69.797005 361.405884,66.638062 361.404785,62.982609 
z"/>
<path fill="#DB5F4F" opacity="1.000000" stroke="none" 
	d="
M75.228867,66.524490 
	C67.371033,69.029907 60.938568,66.619469 58.556587,60.537441 
	C56.320084,54.826855 58.723705,48.441761 64.171478,45.621780 
	C69.631279,42.795567 75.740372,44.195148 79.247261,49.075615 
	C82.818665,54.045856 82.294960,60.075264 77.878998,64.464020 
	C77.172707,65.165962 76.356400,65.757202 75.228867,66.524490 
z"/>
<path fill="#DA5C4C" opacity="1.000000" stroke="none" 
	d="
M163.109177,55.022762 
	C160.294220,56.136105 157.824600,57.089207 155.378159,58.098522 
	C154.225098,58.574242 152.387497,58.695820 152.680069,60.388973 
	C152.895798,61.637508 154.250198,62.522823 155.596100,62.847931 
	C157.840897,63.390175 159.988312,62.980812 161.558807,61.256104 
	C163.475006,59.151745 164.922745,60.504040 166.075180,61.849983 
	C167.848267,63.920815 165.433746,64.555573 164.388824,65.341331 
	C159.077744,69.335213 151.995987,68.371071 147.997055,63.242523 
	C144.229843,58.411129 145.198425,50.531376 150.040146,46.621586 
	C154.629211,42.915836 160.919724,43.475418 164.762756,47.964104 
	C167.175552,50.782265 168.196106,53.385914 163.109177,55.022762 
z"/>
<path fill="#F1C24C" opacity="1.000000" stroke="none" 
	d="
M92.829788,67.444916 
	C84.875214,63.899998 82.083092,57.132729 85.478813,50.413689 
	C88.508736,44.418438 96.065582,42.343151 102.218613,45.816540 
	C106.775169,48.388718 109.089920,54.505478 107.443260,59.622704 
	C105.545250,65.521034 100.577263,68.293747 92.829788,67.444916 
z"/>
<path fill="#696C70" opacity="1.000000" stroke="none" 
	d="
M257.247620,66.320648 
	C251.918732,67.355209 248.046951,65.551010 245.221634,61.559944 
	C244.501694,60.542942 242.932068,59.159115 244.820847,57.727848 
	C246.642334,56.347557 247.659973,57.174847 248.665588,58.960068 
	C250.174393,61.638542 252.625214,62.947609 255.750839,62.572376 
	C258.246094,62.272831 260.216492,61.105228 260.762451,58.457764 
	C261.278473,55.955299 259.874390,54.244049 257.839752,53.217262 
	C255.330139,51.950779 252.607208,51.110859 250.078720,49.877007 
	C246.278168,48.022404 244.086014,45.076340 245.030945,40.650803 
	C245.904297,36.560463 248.835464,34.561394 252.780106,34.030205 
	C257.036255,33.457058 260.669250,34.637230 263.196320,38.350819 
	C263.685272,39.069355 264.098267,39.940945 263.205414,40.506939 
	C262.292664,41.085567 261.217743,41.915661 260.065155,40.964809 
	C259.180237,40.234802 258.535919,39.081905 257.549622,38.630608 
	C254.564972,37.264893 251.418701,37.259895 249.637741,40.335640 
	C247.594925,43.863644 250.487503,45.367844 253.152435,46.606865 
	C254.804108,47.374779 256.524597,47.994209 258.211853,48.686073 
	C262.389923,50.399334 265.291626,53.106079 264.990204,58.009338 
	C264.706757,62.620407 261.934540,65.152161 257.247620,66.320648 
z"/>
<path fill="#696C70" opacity="1.000000" stroke="none" 
	d="
M284.844482,49.338997 
	C282.264069,47.878323 283.509613,46.789356 284.772003,45.842548 
	C288.144440,43.313210 291.961151,43.269676 295.683899,44.577255 
	C299.367584,45.871113 300.997589,48.902203 301.031921,52.762558 
	C301.064423,56.418373 301.005707,60.075512 301.079041,63.730228 
	C301.112946,65.420219 299.919983,66.852493 298.879486,65.858398 
	C296.321533,63.414562 294.650421,65.723381 292.660950,66.337196 
	C288.392456,67.654182 283.356598,65.120789 282.249268,61.042759 
	C281.134033,56.935623 283.937164,53.118469 288.820740,52.225430 
	C291.415588,51.750931 294.018921,51.975857 296.662933,52.907299 
	C295.857269,48.222660 293.037476,46.626331 289.005463,48.060242 
	C287.707001,48.522022 287.021515,50.610188 284.844482,49.338997 
z"/>
<path fill="#6A6D71" opacity="1.000000" stroke="none" 
	d="
M201.457413,65.803146 
	C195.765106,61.867561 193.793228,56.965450 195.641754,51.509369 
	C197.225464,46.834896 200.338760,43.973293 205.547531,43.838593 
	C212.561768,43.657196 217.365448,48.672215 217.034531,55.908493 
	C216.714386,62.909382 211.101364,67.607590 204.222687,66.599426 
	C203.405319,66.479630 202.615585,66.171501 201.457413,65.803146 
z"/>
<path fill="#6A6D71" opacity="1.000000" stroke="none" 
	d="
M401.807190,63.575790 
	C396.344482,67.646744 390.756592,67.556038 387.291199,63.598473 
	C386.459900,62.649059 385.087830,61.544823 386.389069,60.226833 
	C387.557983,59.042862 388.892029,59.036240 390.096527,60.675632 
	C391.602264,62.724991 393.804169,63.419754 396.293060,62.769352 
	C397.435059,62.470928 398.578674,61.839684 398.767609,60.583160 
	C398.958649,59.312622 398.119019,58.348396 396.951447,57.921928 
	C394.781891,57.129463 392.523315,56.572132 390.377991,55.724091 
	C387.744965,54.683220 385.782806,52.989071 386.028503,49.796455 
	C386.266998,46.697254 388.329956,45.002247 391.019562,44.281746 
	C394.115051,43.452522 397.311890,43.440815 400.072784,45.490551 
	C401.166443,46.302456 402.943695,47.214390 401.803619,48.892872 
	C400.881592,50.250332 399.358734,50.330883 397.952515,49.004761 
	C396.358307,47.501385 394.393829,47.451305 392.359497,47.962730 
	C391.315918,48.225075 390.485992,48.770569 390.331451,49.848934 
	C390.164734,51.012581 390.991150,51.688755 391.973633,52.026386 
	C394.006958,52.725090 396.107544,53.236626 398.117737,53.992062 
	C402.947144,55.806961 403.870483,58.070621 401.807190,63.575790 
z"/>
<path fill="#696C70" opacity="1.000000" stroke="none" 
	d="
M337.844116,47.392170 
	C337.833405,45.484562 338.068512,44.280262 339.973846,44.349606 
	C341.900513,44.419724 341.938263,45.724838 341.936829,47.121098 
	C341.933350,50.444485 341.955505,53.767925 341.944244,57.091267 
	C341.934143,60.074036 342.918304,62.445225 346.194183,62.818256 
	C349.515442,63.196457 351.520386,61.313618 352.392853,58.253582 
	C353.366974,54.836956 352.686066,51.309685 352.886139,47.838161 
	C352.975494,46.287235 352.369659,44.226463 355.101044,44.367626 
	C357.450043,44.489025 356.938141,46.312874 356.949860,47.704659 
	C356.993225,52.855591 356.988403,58.007271 356.950012,63.158287 
	C356.940826,64.390320 356.820923,66.816513 355.324524,65.822586 
	C351.914734,63.557823 349.576508,66.359482 346.768127,66.684845 
	C342.122528,67.223091 338.368958,64.210800 338.010529,59.303810 
	C337.732727,55.500370 337.882416,51.665703 337.844116,47.392170 
z"/>
<path fill="#64AD68" opacity="1.000000" stroke="none" 
	d="
M136.762283,32.799507 
	C140.666855,31.172617 141.990463,32.400776 141.894272,36.352402 
	C141.672150,45.479069 141.859207,54.615089 141.792816,63.746677 
	C141.779984,65.512047 142.709717,67.875153 139.283813,67.965675 
	C136.076706,68.050415 136.396393,66.061394 136.406052,64.048752 
	C136.455414,53.757046 136.500793,43.465313 136.762283,32.799507 
z"/>
<path fill="#696C70" opacity="1.000000" stroke="none" 
	d="
M193.257538,44.739689 
	C194.305099,47.037792 193.759232,48.325821 191.396423,48.073093 
	C188.129181,47.723633 188.014053,49.678123 188.087860,52.079044 
	C188.189926,55.398956 188.223206,58.729656 188.063812,62.045055 
	C187.990402,63.572140 189.177078,66.086838 185.940125,65.978607 
	C183.150925,65.885353 184.144226,63.695347 184.064041,62.266830 
	C183.924545,59.782364 184.271225,57.252960 183.957779,54.800713 
	C183.623917,52.188702 186.025269,48.204121 180.646042,47.663685 
	C179.623978,47.561001 179.800583,44.894417 180.628860,44.860405 
	C184.786911,44.689674 183.674316,41.415802 184.446533,39.182438 
	C185.692749,35.578236 188.377686,33.918804 192.140121,34.243961 
	C193.143738,34.330700 194.727600,34.358429 194.607361,36.021809 
	C194.520645,37.221542 193.915848,38.213509 192.363281,38.100136 
	C189.285767,37.875397 188.057907,39.782608 188.223923,42.418629 
	C188.430222,45.694084 191.437653,43.590919 193.257538,44.739689 
z"/>
<path fill="#6C6F73" opacity="1.000000" stroke="none" 
	d="
M279.309204,44.678581 
	C280.080872,46.451473 280.474426,48.214535 278.077698,48.037132 
	C274.772461,47.792473 274.677795,49.706497 274.783020,52.086754 
	C274.878601,54.248981 274.810822,56.418129 274.831604,58.584064 
	C274.848663,60.363331 275.166168,62.035679 277.359314,62.206123 
	C279.265778,62.354286 280.313293,63.432499 279.885254,65.100525 
	C279.478577,66.685265 277.665680,66.245079 276.435089,66.209610 
	C273.424652,66.122856 271.326080,64.654373 270.879700,61.545837 
	C270.573700,59.414932 270.573425,57.237461 270.486023,55.078804 
	C270.432129,53.747841 270.145050,52.309132 270.530518,51.099792 
	C271.638367,47.624054 265.940186,48.822426 266.965393,45.748638 
	C267.615021,43.800873 271.439697,44.092999 270.543640,40.739670 
	C270.135315,39.211502 270.615875,37.749649 272.848053,37.882919 
	C274.814362,38.000313 274.968506,39.344376 274.760773,40.677902 
	C274.210541,44.210297 276.437988,44.439465 279.309204,44.678581 
z"/>
<path fill="#686B6F" opacity="1.000000" stroke="none" 
	d="
M331.697571,62.277618 
	C333.887146,62.502914 334.342529,63.805607 334.032593,65.177750 
	C333.772003,66.331421 332.400452,66.175728 331.466400,66.210007 
	C327.759583,66.346092 325.345642,64.682976 324.987183,60.853146 
	C324.755066,58.373100 325.007507,55.850079 324.824829,53.362324 
	C324.664764,51.182835 326.103241,48.268467 321.882782,47.796082 
	C320.472351,47.638210 320.418884,44.835640 322.187439,44.560074 
	C325.221466,44.087334 324.875061,42.214188 324.871094,40.240047 
	C324.868561,38.975376 325.041260,37.955658 326.699707,37.904350 
	C328.500641,37.848629 329.072327,38.751736 328.937195,40.354420 
	C328.734619,42.756580 328.962311,44.720509 332.214752,44.361206 
	C333.367279,44.233883 333.994507,44.958614 334.062256,46.180958 
	C334.152893,47.815483 333.180908,48.223660 331.871460,48.075199 
	C328.721039,47.718006 328.579346,49.857483 329.013733,51.865086 
	C329.761078,55.319370 326.708008,59.637829 331.697571,62.277618 
z"/>
<path fill="#76797D" opacity="1.000000" stroke="none" 
	d="
M232.462250,47.741215 
	C226.185043,48.689999 224.905807,50.006279 224.747208,55.717590 
	C224.678192,58.202957 224.714096,60.691833 224.733795,63.178867 
	C224.746796,64.817451 224.547775,66.142693 222.368134,66.068512 
	C220.516708,66.005508 220.241806,64.919952 220.245438,63.440685 
	C220.258850,57.968872 220.267456,52.496861 220.231049,47.025230 
	C220.219315,45.262665 221.387833,43.321400 222.615311,44.418755 
	C225.492508,46.990952 227.366333,44.170395 229.666916,43.953362 
	C232.342957,43.700916 234.595215,43.850685 232.462250,47.741215 
z"/>
<path fill="#696C70" opacity="1.000000" stroke="none" 
	d="
M310.694824,51.140770 
	C309.363617,55.248940 310.106506,59.096584 309.890503,62.896473 
	C309.808289,64.343155 310.214111,65.970772 307.831940,66.034752 
	C305.451263,66.098701 305.678589,64.527634 305.676056,63.037861 
	C305.666962,57.716961 305.672699,52.396023 305.679413,47.075111 
	C305.681152,45.681538 306.206055,43.596367 307.591980,44.492455 
	C310.459961,46.346756 312.574493,44.662170 315.030487,44.084957 
	C316.179535,43.814911 317.840485,43.344120 318.004944,45.505230 
	C318.114899,46.950409 317.998993,48.087288 316.013184,48.101204 
	C313.938904,48.115742 312.145203,48.983280 310.694824,51.140770 
z"/>
<path fill="#F6F7FA" opacity="1.000000" stroke="none" 
	d="
M118.219818,61.782013 
	C117.470894,60.824413 116.908409,60.185970 116.583008,59.443611 
	C115.126747,56.121304 115.140877,52.828121 118.064400,50.393440 
	C120.277199,48.550644 122.947281,48.329975 125.294052,50.535919 
	C128.050766,53.127209 128.762192,56.241810 126.881119,59.532608 
	C124.985161,62.849438 122.174294,64.104942 118.219818,61.782013 
z"/>
<path fill="#F3F4F5" opacity="1.000000" stroke="none" 
	d="
M368.390015,61.562611 
	C367.429047,60.383026 366.467072,59.528263 366.192200,58.491371 
	C365.216187,54.808971 365.138092,51.128159 368.769836,48.741360 
	C371.563019,46.905643 374.608429,47.180454 376.878662,49.639648 
	C379.640289,52.631119 379.910919,56.279808 377.703278,59.679600 
	C375.511230,63.055347 372.366394,63.900238 368.390015,61.562611 
z"/>
<path fill="#F7F6F7" opacity="1.000000" stroke="none" 
	d="
M74.643616,60.472649 
	C69.469353,64.287514 65.043457,63.218647 63.468723,58.083004 
	C62.622768,55.324100 63.205143,52.783970 65.349892,50.844082 
	C67.310364,49.070877 69.739563,48.289471 72.207237,49.588951 
	C74.857079,50.984356 76.465263,53.266357 76.044533,56.440536 
	C75.875877,57.713017 75.297012,58.931122 74.643616,60.472649 
z"/>
<path fill="#F5EAE9" opacity="1.000000" stroke="none" 
	d="
M156.301666,53.352837 
	C154.474930,53.999199 153.185989,55.303421 151.403488,54.737160 
	C152.412537,48.631618 155.888885,47.197178 161.021088,51.126072 
	C159.440170,51.862488 158.036972,52.516125 156.301666,53.352837 
z"/>
<path fill="#F8F6F0" opacity="1.000000" stroke="none" 
	d="
M101.317093,51.734352 
	C101.768478,52.843941 102.022346,53.625309 102.272346,54.407913 
	C103.436531,58.052227 101.621902,60.675571 98.815865,62.318436 
	C96.186485,63.857876 93.085030,63.324615 91.199844,60.871571 
	C89.079674,58.112740 88.483925,54.863899 90.906250,51.737793 
	C93.008675,49.024544 95.662476,48.291519 98.790939,49.677097 
	C99.652840,50.058826 100.346786,50.819763 101.317093,51.734352 
z"/>
<path fill="#EDEEEF" opacity="1.000000" stroke="none" 
	d="
M296.919373,57.864246 
	C295.927521,60.998451 294.031281,62.651913 291.105591,62.960873 
	C288.888092,63.195042 286.998901,62.343044 286.406555,60.178616 
	C285.763458,57.828796 287.398224,56.458466 289.446533,55.796490 
	C292.226776,54.897968 294.942505,54.726460 296.919373,57.864246 
z"/>
<path fill="#F3F4F5" opacity="1.000000" stroke="none" 
	d="
M206.775421,62.869091 
	C204.076569,62.965443 202.200119,62.031059 200.772385,60.252689 
	C198.115952,56.943882 198.618042,51.488949 201.962326,49.078911 
	C205.052399,46.852055 208.248596,47.098480 210.967422,49.770374 
	C213.900940,52.653275 213.702103,58.216995 210.609818,60.988235 
	C209.667145,61.833050 208.318573,62.224926 206.775421,62.869091 
z"/>
</svg>