<svg version="1.1" id="Layer_1" xmlns="http://www.w3.org/2000/svg" xmlns:xlink="http://www.w3.org/1999/xlink" x="0px" y="0px"
	 width="100%" viewBox="0 0 358 420" enable-background="new 0 0 358 420" xml:space="preserve">
<path fill="#FBFCFB" opacity="1.000000" stroke="none" 
	d="
M186.000000,421.000000 
	C125.333344,421.000000 65.166603,420.962891 5.000248,421.096893 
	C1.575440,421.104523 0.902264,420.423859 0.905041,416.999939 
	C1.016426,279.666718 1.016414,142.333405 0.905062,5.000184 
	C0.902286,1.576602 1.575818,0.901386 4.999985,0.904748 
	C121.666519,1.019313 238.333191,1.019302 354.999725,0.904788 
	C358.423279,0.901427 359.097778,1.575720 359.095001,4.999904 
	C358.983612,142.333115 358.983582,279.666443 359.094940,416.999664 
	C359.097717,420.422943 358.425537,421.105499 355.000000,421.097168 
	C298.833588,420.960266 242.666748,421.000000 186.000000,421.000000 
z"/>
<path fill="#459A97" opacity="1.000000" stroke="none" 
	d="
M92.222992,300.410736 
	C91.260239,299.796021 90.577171,299.368042 89.588959,298.879089 
	C88.906540,298.748016 88.597176,298.560974 88.254120,298.009705 
	C87.543175,296.942139 86.924179,296.138458 86.024200,295.207520 
	C85.204163,294.268280 84.215843,294.095551 83.247772,293.294495 
	C82.980728,293.074921 82.991959,293.007660 82.958481,293.014160 
	C81.842133,291.735321 80.573219,290.626068 79.294037,289.100525 
	C78.811607,288.365723 78.499878,287.895386 77.979897,287.231384 
	C76.752937,285.603333 76.057533,284.002716 75.272827,282.083252 
	C75.057350,277.783051 74.861397,273.791351 74.859177,269.799500 
	C74.835884,227.824585 74.843536,185.849670 74.809723,143.403290 
	C74.905022,139.764328 75.903801,136.751556 76.634186,133.317169 
	C76.842369,132.980270 77.081795,132.641678 77.120201,132.437927 
	C77.668747,131.329865 78.248810,130.463928 78.910431,129.320709 
	C79.163918,129.137772 79.068077,129.020004 79.121086,129.080170 
	C79.541641,128.566925 79.974785,128.040726 80.553368,127.200516 
	C82.695808,125.091362 84.651260,123.266296 86.783630,121.159355 
	C87.587265,120.423332 88.140388,119.880661 89.010559,119.287521 
	C89.771027,118.984665 90.263222,118.790947 90.924652,118.389099 
	C96.853851,114.208618 103.207436,111.250626 109.483452,108.319450 
	C120.785751,103.040794 131.295197,96.289459 142.674744,91.170372 
	C151.908386,87.016624 160.613403,81.779800 169.667542,77.239540 
	C173.544250,75.295547 178.063797,75.102623 181.999069,72.374496 
	C182.711472,72.078125 183.086304,71.936485 183.692993,71.600883 
	C185.152344,70.980415 186.381943,70.561584 187.993469,70.309006 
	C188.311279,70.241966 188.672989,70.263870 188.831329,70.175812 
	C194.729462,68.353241 200.475830,68.430191 206.516449,70.424278 
	C207.238831,71.737335 207.503311,72.712227 207.507278,73.710106 
	C207.585953,93.469193 208.010330,113.229752 207.173706,133.418549 
	C206.005127,136.359909 203.665588,136.117233 201.575943,136.440903 
	C190.053421,138.225632 178.948074,141.382034 168.173340,146.808029 
	C167.287323,147.498734 166.611847,147.769302 165.574249,148.037460 
	C164.628403,148.250351 163.997681,148.343994 163.157059,148.761597 
	C162.742233,149.051910 162.575150,149.166748 162.144089,149.435196 
	C161.693863,149.673004 161.507614,149.757172 161.035156,149.951813 
	C160.168320,150.278778 159.587906,150.495758 158.747940,150.923981 
	C156.450699,151.993683 154.318756,152.624451 152.017578,153.739456 
	C145.652832,156.086197 139.709579,158.553452 133.924957,161.392731 
	C132.912872,161.889481 131.528259,162.202316 131.454514,163.541412 
	C131.368210,165.108414 132.831223,165.691895 133.946136,166.330063 
	C137.194519,168.189362 141.006241,167.871170 144.811920,169.052368 
	C145.610413,169.369064 146.027374,169.631790 146.689911,170.201904 
	C151.593475,173.403854 151.666382,177.336121 149.362762,182.147217 
	C148.122437,186.444733 148.237488,190.419815 148.824097,194.774124 
	C148.690674,197.121658 147.717911,199.137741 149.208679,201.374023 
	C149.544647,202.106522 149.641098,202.553619 149.601364,203.357758 
	C149.758484,204.194427 148.226456,204.439163 149.538254,205.362579 
	C150.086075,206.577454 150.069229,207.528931 149.909485,208.844269 
	C149.151718,213.647797 148.589066,218.086411 150.886871,222.607574 
	C152.660172,224.460526 154.503235,225.659332 156.690765,226.936066 
	C157.371994,227.281921 157.767410,227.467819 158.478928,227.760193 
	C159.207825,228.043442 159.613602,228.235214 160.297089,228.633759 
	C163.640060,231.659378 167.426422,232.239548 171.732056,232.255524 
	C172.577545,232.156067 173.069061,232.151062 173.941559,232.217606 
	C175.098114,232.401398 175.876129,232.524521 177.093094,232.483521 
	C186.889603,234.507797 196.561264,233.805481 206.289124,235.934341 
	C207.806015,238.422028 207.641861,240.779922 207.643585,243.089783 
	C207.667847,275.610809 207.662903,308.131836 207.650787,340.652893 
	C207.650055,342.641968 207.693481,344.640289 206.942337,347.026337 
	C202.615265,350.673157 198.375305,347.091614 194.171921,347.599548 
	C193.141098,347.724121 191.992294,347.012817 190.381897,346.912415 
	C188.975327,346.525635 188.026001,346.188599 186.697067,345.818054 
	C183.685608,343.927338 180.421082,343.708466 177.301788,342.168213 
	C176.330063,341.550140 175.630768,341.171906 174.632172,340.766754 
	C173.277039,340.611267 172.388687,340.071838 171.223206,339.405701 
	C170.240570,338.818817 169.516647,338.403778 168.483490,337.926239 
	C167.973846,337.755829 167.773422,337.647980 167.295670,337.341003 
	C165.404953,336.356995 163.791580,335.572083 161.854355,334.702209 
	C160.166656,334.601746 159.592117,333.258392 158.212738,332.678345 
	C157.572311,332.352081 157.205948,332.155518 156.531342,331.900604 
	C155.650787,331.612488 155.042038,331.498627 154.344513,331.004852 
	C154.225693,330.720459 154.161911,330.754913 154.187866,330.746582 
	C153.858948,330.715576 153.559433,330.574951 153.180450,330.096619 
	C152.622742,329.573700 152.199905,329.270630 151.529816,328.884247 
	C148.571930,327.139923 145.587173,326.171082 142.341095,325.040344 
	C141.727264,324.427704 141.319534,324.116425 140.650681,323.770874 
	C138.701645,323.082397 137.264755,321.907990 135.279297,321.137024 
	C135.044601,320.890045 134.771484,320.698578 134.604858,320.705231 
	C134.032135,320.760132 133.685745,320.633362 133.241272,320.104156 
	C131.772583,319.159119 130.453766,318.464661 128.817581,317.706543 
	C127.666145,317.687866 127.157829,316.995422 126.193718,316.627258 
	C124.023727,315.610229 122.116478,314.705994 119.867188,313.747772 
	C117.422844,311.948883 114.851295,311.011688 112.248253,309.448364 
	C111.649612,309.085632 111.338837,308.907745 110.760620,308.692200 
	C110.063065,308.748718 109.686279,308.639587 109.205254,308.081787 
	C109.055267,307.807556 108.831253,307.610352 108.682167,307.616791 
	C106.085892,306.934174 104.130592,305.088104 101.259834,304.507629 
	C100.625160,304.163605 100.301674,303.975281 99.698868,303.744415 
	C99.032738,303.744995 98.689247,303.642700 98.215134,303.173950 
	C98.041199,302.952972 97.766914,302.734497 97.591949,302.723145 
	C95.732239,302.115417 94.013237,301.598724 92.222992,300.410736 
z"/>
<path fill="#65D8B1" opacity="1.000000" stroke="none" 
	d="
M206.287872,348.324066 
	C205.959900,311.087006 205.948730,274.118103 205.918427,236.696213 
	C208.657623,234.407166 211.917526,235.100754 214.916580,234.612625 
	C223.579086,233.202682 231.898102,230.613235 240.606628,227.976837 
	C242.326019,227.609741 243.819611,227.915817 245.301941,226.753723 
	C246.178391,226.158371 246.807632,225.836838 247.798676,225.439087 
	C248.613480,225.235306 249.091034,225.198868 249.928497,225.272171 
	C254.731415,228.276169 259.261261,225.667725 264.032867,225.747925 
	C265.263428,229.209793 263.629303,232.582336 264.916077,236.138123 
	C265.116516,236.905457 265.234589,237.338943 265.472656,238.078735 
	C265.670654,238.587463 265.753723,238.788513 265.967712,239.286865 
	C266.275543,239.976852 266.452667,240.369492 266.778137,241.047058 
	C267.735077,243.114212 269.292419,244.350769 270.510345,246.227295 
	C271.351593,247.449692 272.340149,247.743622 273.762390,247.900482 
	C277.205353,248.509842 280.200531,249.629395 283.416168,249.619278 
	C286.908691,249.608292 289.163269,248.185226 289.589844,244.518982 
	C289.935944,241.544235 290.660980,238.622528 290.875000,235.267761 
	C291.083344,233.995224 291.308655,233.083221 291.083618,231.793121 
	C290.829926,230.263550 290.807739,229.084396 291.204071,227.580017 
	C293.310120,223.878876 293.561646,220.607803 290.460266,217.359924 
	C289.948608,217.113892 289.740997,217.016541 289.211609,216.787720 
	C286.994995,216.045502 285.009094,216.428299 282.699768,216.039551 
	C281.516327,215.683014 280.866302,215.213882 280.199585,214.137329 
	C279.106628,201.150879 279.964264,188.524612 279.557678,175.917221 
	C279.363708,169.901566 277.926544,164.343735 271.240051,161.496643 
	C269.821198,161.185028 268.878601,160.754227 267.641602,160.089996 
	C266.548157,159.408981 265.944794,158.671463 264.792511,158.124954 
	C264.286072,157.886917 264.083740,157.790695 263.583130,157.539490 
	C260.379425,155.633896 257.151672,154.773880 253.575409,153.898148 
	C252.628189,153.591324 252.043884,153.288559 251.208435,152.780121 
	C250.151260,151.970596 249.395050,151.270844 248.001022,151.139191 
	C247.286057,151.009781 246.885941,150.896011 246.211838,150.610687 
	C244.805344,149.557312 243.755844,148.527451 241.982147,148.055847 
	C240.851791,147.661362 240.056778,147.292374 238.915909,146.872421 
	C237.727142,146.403900 236.811371,146.229141 235.536514,145.963562 
	C225.858551,141.470810 215.761459,139.201218 206.073578,134.994629 
	C205.910767,113.776390 205.916611,92.909042 205.921783,71.580437 
	C206.505722,70.139626 207.582520,69.895943 208.700241,69.166092 
	C208.909622,68.931793 208.989059,68.975563 208.963898,68.937836 
	C214.294220,68.453987 219.276382,70.094437 224.241058,71.725250 
	C225.649429,72.187874 226.999710,72.879929 228.682129,73.757156 
	C229.003601,74.011238 229.360336,74.162193 229.552368,74.187469 
	C231.260849,74.881790 232.957916,74.950752 234.687958,75.914108 
	C235.609100,76.540291 236.312119,76.887337 237.313187,77.274719 
	C238.488419,77.380539 238.963852,78.082291 239.802124,78.760941 
	C240.513077,79.239929 241.003250,79.516953 241.759277,79.886795 
	C243.033203,80.855110 244.538498,80.571831 245.793945,81.673576 
	C246.415726,81.968636 246.774490,82.073952 247.412750,82.206734 
	C254.198120,84.793045 260.319916,88.140335 266.779114,91.606903 
	C267.413025,91.943916 267.756958,92.064285 268.370636,92.230614 
	C275.139618,95.272301 281.486359,98.549774 287.759888,102.703262 
	C288.038666,102.929131 288.378021,103.100266 288.563660,103.140945 
	C299.094055,108.666466 310.154633,112.853485 320.097046,118.958626 
	C328.516602,124.128632 334.797119,131.701340 336.114075,142.604309 
	C337.186249,159.322098 336.798248,175.675095 336.334595,192.456665 
	C337.572479,201.642242 336.950623,210.422302 336.577026,219.655670 
	C336.360687,220.808350 336.314240,221.502365 336.339111,222.539108 
	C337.041504,224.309021 337.076935,225.779724 336.572815,227.698425 
	C336.356323,239.404648 336.298767,250.690704 336.317078,262.430908 
	C337.152435,264.638245 337.088257,266.441833 336.554199,268.688782 
	C336.328033,270.816711 336.270020,272.519745 336.269928,274.646790 
	C335.854919,278.641815 336.193207,282.428375 333.339478,285.741211 
	C332.795074,286.504364 332.486908,286.955902 332.058746,287.653046 
	C329.827240,289.939484 328.722076,292.844971 325.884033,294.573975 
	C325.545929,294.595917 325.210907,294.672974 325.069336,294.770447 
	C324.525116,295.538757 323.920288,296.028870 323.182526,296.786926 
	C322.666931,297.106232 322.415344,297.297913 322.106934,297.774231 
	C318.660431,300.788269 314.550110,302.109955 310.334625,303.930786 
	C308.894684,304.299072 307.811462,304.648163 306.401306,305.100342 
	C305.400604,305.610382 304.816101,306.139740 303.880554,306.622375 
	C303.242157,306.742950 302.895874,306.829376 302.302673,307.020599 
	C301.418823,307.587097 300.840973,308.123199 299.921021,308.652832 
	C299.280457,308.796509 298.928040,308.878723 298.323242,309.062073 
	C296.855652,310.056061 295.480072,310.692566 293.931244,311.623810 
	C292.233185,312.299683 290.850128,312.907410 289.219482,313.723358 
	C287.517242,315.012451 285.865387,315.734833 283.919556,316.587708 
	C283.244934,316.748901 282.903198,316.850311 282.319550,317.067017 
	C281.421509,317.574890 280.879913,318.111877 280.043335,318.726776 
	C279.410400,318.935455 279.030151,319.012970 278.376160,319.190094 
	C276.878693,320.166748 275.606628,320.960449 273.895142,321.589142 
	C273.231750,321.720764 272.887482,321.810211 272.295227,321.999084 
	C268.132477,324.868408 263.300568,325.808746 259.005249,328.615234 
	C257.924408,329.037140 257.170868,329.316132 256.229187,329.833771 
	C255.420364,330.576965 254.831329,331.120483 253.878693,331.613586 
	C253.238083,331.738586 252.895782,331.833496 252.306763,332.030090 
	C251.417343,332.588379 250.837402,333.125000 249.910370,333.642670 
	C249.267105,333.777313 248.914169,333.858551 248.309967,334.044342 
	C246.434708,335.459503 244.339020,335.695038 242.264954,336.788574 
	C242.003265,337.000916 242.000000,337.000000 242.000305,337.001648 
	C241.435898,337.576050 240.835098,338.107391 239.886902,338.617401 
	C238.962677,338.803497 238.337372,338.955261 237.414154,339.229614 
	C234.818924,340.926575 232.184326,341.810730 229.348236,343.038757 
	C228.200256,343.317352 227.393600,343.538208 226.306976,343.909424 
	C224.762497,345.107056 223.110809,345.281952 221.355530,346.040802 
	C220.591400,346.153809 220.164536,346.209442 219.424683,346.344788 
	C216.483597,347.967896 213.471115,347.858978 210.212585,348.488556 
	C208.746841,348.967743 207.677078,349.025330 206.287872,348.324066 
z"/>
<path fill="#DDE6E4" opacity="1.000000" stroke="none" 
	d="
M181.939392,72.173981 
	C181.970200,73.248268 181.167358,73.814507 180.191315,74.133720 
	C166.887054,78.484764 155.279953,86.328873 142.789703,92.356407 
	C125.650482,100.627464 109.194084,110.264534 91.465210,118.148346 
	C93.871460,112.664032 99.139084,110.595169 104.302101,108.028137 
	C113.274277,103.567207 121.909599,98.431404 130.719482,93.639824 
	C133.326752,92.221764 135.932861,90.648155 138.735229,89.771286 
	C146.813858,87.243439 153.919464,82.668655 161.449982,79.045753 
	C167.957123,75.915199 175.048615,74.987083 181.939392,72.173981 
z"/>
<path fill="#CDF6EC" opacity="1.000000" stroke="none" 
	d="
M336.415710,142.694412 
	C333.653412,134.993561 329.551270,128.010391 323.216248,122.455345 
	C317.269501,117.240738 309.611816,115.121231 302.842621,111.389565 
	C298.244049,108.854485 293.457001,106.652451 288.884583,103.495850 
	C294.919037,103.531998 299.295074,108.161987 304.857849,110.010841 
	C305.897095,110.356255 306.940125,110.774681 308.024323,111.105530 
	C311.270569,112.096153 315.381927,111.357880 317.012817,115.795906 
	C317.296906,116.569023 319.328308,116.767838 320.586853,117.104050 
	C328.648529,119.257637 333.785553,125.020386 334.948761,133.491730 
	C335.362579,136.505417 338.268219,139.030701 336.415710,142.694412 
z"/>
<path fill="#CDF6EC" opacity="1.000000" stroke="none" 
	d="
M336.747192,219.947769 
	C335.558716,211.353256 336.095978,202.576859 336.263672,193.345551 
	C336.809601,193.171036 337.546021,193.444504 337.557251,193.745010 
	C337.881134,202.430786 338.835083,211.133270 336.747192,219.947769 
z"/>
<path fill="#CDF6EC" opacity="1.000000" stroke="none" 
	d="
M287.978821,102.594345 
	C281.390442,100.129990 275.264526,96.338501 268.799805,92.582169 
	C276.066864,93.672485 282.110413,97.739136 287.978821,102.594345 
z"/>
<path fill="#CDF6EC" opacity="1.000000" stroke="none" 
	d="
M267.000366,91.483810 
	C260.345215,89.621910 254.318985,85.941269 247.856232,82.536362 
	C251.070206,81.725700 253.900879,83.468369 256.383881,85.129509 
	C259.779083,87.400932 264.242218,87.732918 267.000366,91.483810 
z"/>
<path fill="#DDE6E4" opacity="1.000000" stroke="none" 
	d="
M205.546616,348.117950 
	C207.038895,348.125031 208.106705,348.194122 209.571289,348.315247 
	C210.166718,348.477295 210.365387,348.587280 210.307709,348.921570 
	C203.262787,350.919403 196.813034,348.884003 190.119873,347.126434 
	C194.990494,347.301758 200.056320,347.740875 205.546616,348.117950 
z"/>
<path fill="#CDF6EC" opacity="1.000000" stroke="none" 
	d="
M208.494888,68.935898 
	C208.584747,70.130615 207.752487,70.754929 206.249359,71.055237 
	C200.730316,68.608833 195.259903,70.426208 189.459290,70.086815 
	C189.662674,68.520889 190.932785,67.997635 192.538773,68.042007 
	C197.728317,68.185410 202.965469,67.500931 208.494888,68.935898 
z"/>
<path fill="#CDF6EC" opacity="1.000000" stroke="none" 
	d="
M228.946472,73.656967 
	C222.669846,72.015869 216.350876,69.964622 209.352463,68.908417 
	C209.103607,68.049454 209.535507,66.893707 210.383240,67.248878 
	C216.394775,69.767540 223.637222,68.521263 228.946472,73.656967 
z"/>
<path fill="#CDF6EC" opacity="1.000000" stroke="none" 
	d="
M259.067871,328.813721 
	C261.934021,324.729858 267.130859,324.378601 271.676910,322.095612 
	C268.911560,326.327881 263.765350,326.818878 259.067871,328.813721 
z"/>
<path fill="#CDF6EC" opacity="1.000000" stroke="none" 
	d="
M310.182892,304.201843 
	C313.746185,301.997070 317.514526,300.044128 321.638733,298.038635 
	C319.521667,302.647125 314.686737,303.069366 310.182892,304.201843 
z"/>
<path fill="#CDF6EC" opacity="1.000000" stroke="none" 
	d="
M333.450043,285.981262 
	C334.553741,282.692291 335.280487,279.152618 336.016785,275.304565 
	C337.908203,279.249786 337.022339,282.852905 333.450043,285.981262 
z"/>
<path fill="#DDE6E4" opacity="1.000000" stroke="none" 
	d="
M76.485687,133.065720 
	C76.340683,136.129227 75.839005,139.278198 75.057068,142.679504 
	C73.088661,139.375916 74.820702,136.292831 76.485687,133.065720 
z"/>
<path fill="#CDF6EC" opacity="1.000000" stroke="none" 
	d="
M210.468262,349.098572 
	C210.051376,349.145905 210.002090,348.755035 209.985062,348.561157 
	C212.504791,346.671967 215.552429,346.934479 218.723679,346.304138 
	C217.212524,349.940308 213.785004,348.669525 210.468262,349.098572 
z"/>
<path fill="#CDF6EC" opacity="1.000000" stroke="none" 
	d="
M325.918610,294.692200 
	C327.480865,292.434326 328.816193,289.747925 331.608276,287.972992 
	C330.928406,290.910156 329.853088,293.868378 325.918610,294.692200 
z"/>
<path fill="#CDF6EC" opacity="1.000000" stroke="none" 
	d="
M229.224182,343.327728 
	C231.031784,340.965515 233.799576,340.257812 236.759796,339.294006 
	C235.653336,342.752869 232.289398,342.685211 229.224182,343.327728 
z"/>
<path fill="#DDE6E4" opacity="1.000000" stroke="none" 
	d="
M142.259766,325.071198 
	C145.238251,325.483948 148.397766,326.084412 151.128754,328.490784 
	C147.958664,328.605774 145.069626,327.271667 142.259766,325.071198 
z"/>
<path fill="#DDE6E4" opacity="1.000000" stroke="none" 
	d="
M177.172653,342.258667 
	C180.058319,342.863312 183.359894,343.054352 186.131989,345.490417 
	C183.082565,345.379639 179.968903,344.633179 177.172653,342.258667 
z"/>
<path fill="#DDE6E4" opacity="1.000000" stroke="none" 
	d="
M101.040131,304.673615 
	C103.711617,304.281616 105.892868,305.761597 108.339096,307.337799 
	C105.630188,307.974548 103.442017,306.312836 101.040131,304.673615 
z"/>
<path fill="#DDE6E4" opacity="1.000000" stroke="none" 
	d="
M112.031387,309.584717 
	C114.881409,309.575195 117.134064,311.148773 119.357788,313.393372 
	C116.685577,313.147034 114.174057,311.957458 112.031387,309.584717 
z"/>
<path fill="#CDF6EC" opacity="1.000000" stroke="none" 
	d="
M336.699982,268.977905 
	C336.293396,267.324524 336.200714,265.535339 336.250488,263.315643 
	C338.824310,264.638916 338.366425,266.693909 336.699982,268.977905 
z"/>
<path fill="#CDF6EC" opacity="1.000000" stroke="none" 
	d="
M221.239197,346.320221 
	C222.096283,344.676971 223.635223,344.198975 225.668945,344.030243 
	C225.451553,346.629150 223.305405,346.308929 221.239197,346.320221 
z"/>
<path fill="#CDF6EC" opacity="1.000000" stroke="none" 
	d="
M283.964966,316.748413 
	C284.616821,314.837708 286.415802,314.349762 288.613678,313.931641 
	C288.004974,315.817871 286.711517,317.186157 283.964966,316.748413 
z"/>
<path fill="#DDE6E4" opacity="1.000000" stroke="none" 
	d="
M79.104813,289.188293 
	C81.011086,289.329163 81.945610,290.820374 82.874535,292.695435 
	C80.826111,292.764282 79.617691,291.525757 79.104813,289.188293 
z"/>
<path fill="#CDF6EC" opacity="1.000000" stroke="none" 
	d="
M242.378967,337.005432 
	C243.094452,334.762299 245.505356,334.974365 247.701584,334.136780 
	C247.194839,336.778748 244.702988,336.390533 242.378967,337.005432 
z"/>
<path fill="#CDF6EC" opacity="1.000000" stroke="none" 
	d="
M336.716492,227.988174 
	C336.315216,226.654526 336.216553,225.190460 336.264160,223.304108 
	C338.724670,224.282242 338.411530,226.003983 336.716492,227.988174 
z"/>
<path fill="#DDE6E4" opacity="1.000000" stroke="none" 
	d="
M92.027344,300.566956 
	C93.639961,300.867920 95.336624,301.511871 97.225128,302.433777 
	C95.262192,303.248505 93.468231,302.722778 92.027344,300.566956 
z"/>
<path fill="#DDE6E4" opacity="1.000000" stroke="none" 
	d="
M135.174042,321.220184 
	C136.976944,321.052185 138.612839,321.871216 140.216339,323.441223 
	C138.242691,324.058228 136.656006,323.076630 135.174042,321.220184 
z"/>
<path fill="#CDF6EC" opacity="1.000000" stroke="none" 
	d="
M273.953430,321.735352 
	C274.394836,320.089081 275.855927,319.558502 277.761353,319.240173 
	C277.648041,321.327148 276.362946,322.135803 273.953430,321.735352 
z"/>
<path fill="#DDE6E4" opacity="1.000000" stroke="none" 
	d="
M75.109550,282.149078 
	C76.687050,282.934021 76.956619,284.805084 77.770897,286.702545 
	C75.447601,286.386444 75.185921,284.494446 75.109550,282.149078 
z"/>
<path fill="#CDF6EC" opacity="1.000000" stroke="none" 
	d="
M234.782074,75.835060 
	C233.231277,76.066208 231.574631,75.879921 229.975784,74.482002 
	C231.546753,73.994797 233.391953,73.610382 234.782074,75.835060 
z"/>
<path fill="#CDF6EC" opacity="1.000000" stroke="none" 
	d="
M293.983154,311.766632 
	C294.392365,310.131653 295.861298,309.588745 297.727783,309.144470 
	C297.635559,311.174286 296.052917,311.591339 293.983154,311.766632 
z"/>
<path fill="#DDE6E4" opacity="1.000000" stroke="none" 
	d="
M158.019714,332.868103 
	C159.450821,332.137268 160.314178,333.136200 161.372314,334.336365 
	C159.959427,335.167023 158.857574,334.591187 158.019714,332.868103 
z"/>
<path fill="#DDE6E4" opacity="1.000000" stroke="none" 
	d="
M187.943680,70.156380 
	C187.064651,70.683937 185.818039,71.125908 184.248138,71.487404 
	C184.633179,69.571259 186.180801,70.029182 187.943680,70.156380 
z"/>
<path fill="#CDF6EC" opacity="1.000000" stroke="none" 
	d="
M245.968826,81.522308 
	C244.624680,81.990662 243.502472,81.249466 242.195984,80.262726 
	C243.399048,80.095436 244.981461,79.542389 245.968826,81.522308 
z"/>
<path fill="#DDE6E4" opacity="1.000000" stroke="none" 
	d="
M171.049118,339.577332 
	C171.942566,339.578217 172.920624,339.922577 174.115784,340.503387 
	C173.126053,341.015503 171.922684,341.277588 171.049118,339.577332 
z"/>
<path fill="#DDE6E4" opacity="1.000000" stroke="none" 
	d="
M83.022461,293.399170 
	C84.078049,293.134735 84.910812,293.690338 85.680405,294.781128 
	C84.653305,295.016754 83.512268,295.054199 83.022461,293.399170 
z"/>
<path fill="#DDE6E4" opacity="1.000000" stroke="none" 
	d="
M78.829430,129.225464 
	C79.149277,130.307220 78.617912,131.217331 77.453583,132.095993 
	C76.915466,130.945480 77.375557,129.978516 78.829430,129.225464 
z"/>
<path fill="#DDE6E4" opacity="1.000000" stroke="none" 
	d="
M80.433212,126.985168 
	C80.406258,127.596649 80.072174,128.276901 79.456093,129.048737 
	C79.010559,128.225464 79.188965,127.466599 80.433212,126.985168 
z"/>
<path fill="#DDE6E4" opacity="1.000000" stroke="none" 
	d="
M88.939667,119.139061 
	C88.709915,119.728615 88.140999,120.278854 87.266319,120.853287 
	C87.063744,119.875809 87.494080,119.175941 88.939667,119.139061 
z"/>
<path fill="#CDF6EC" opacity="1.000000" stroke="none" 
	d="
M239.940552,338.730530 
	C240.184738,338.119659 240.781494,337.587616 241.689438,337.029419 
	C241.907852,338.055664 241.512177,338.821716 239.940552,338.730530 
z"/>
<path fill="#CDF6EC" opacity="1.000000" stroke="none" 
	d="
M239.964111,78.618477 
	C239.089767,79.039619 238.401123,78.640923 237.756912,77.593803 
	C238.619217,77.052780 239.480911,77.140396 239.964111,78.618477 
z"/>
<path fill="#CDF6EC" opacity="1.000000" stroke="none" 
	d="
M249.963852,333.765747 
	C249.984741,332.896057 250.492035,332.257477 251.742737,332.116516 
	C251.899689,333.135559 251.457535,333.849487 249.963852,333.765747 
z"/>
<path fill="#CDF6EC" opacity="1.000000" stroke="none" 
	d="
M253.928467,331.723999 
	C254.191788,331.125549 254.803192,330.607452 255.727814,330.080902 
	C255.900574,331.105865 255.460312,331.833862 253.928467,331.723999 
z"/>
<path fill="#CDF6EC" opacity="1.000000" stroke="none" 
	d="
M280.121826,318.881836 
	C280.041931,317.998871 280.494812,317.335083 281.760529,317.166809 
	C281.928528,318.126709 281.512177,318.819244 280.121826,318.881836 
z"/>
<path fill="#CDF6EC" opacity="1.000000" stroke="none" 
	d="
M323.307892,296.956421 
	C323.048767,296.077515 323.421478,295.367554 324.617004,294.934448 
	C324.954163,295.838165 324.716248,296.643280 323.307892,296.956421 
z"/>
<path fill="#DDE6E4" opacity="1.000000" stroke="none" 
	d="
M126.042725,316.817200 
	C126.813240,316.212494 127.528160,316.528381 128.334259,317.381653 
	C127.611679,317.946838 126.779991,317.995789 126.042725,316.817200 
z"/>
<path fill="#CDF6EC" opacity="1.000000" stroke="none" 
	d="
M303.927368,306.737976 
	C303.967316,305.855377 304.481903,305.216827 305.757568,305.157104 
	C305.872040,306.190094 305.398651,306.873383 303.927368,306.737976 
z"/>
<path fill="#CDF6EC" opacity="1.000000" stroke="none" 
	d="
M299.976349,308.779480 
	C299.986511,307.907959 300.488983,307.266846 301.738525,307.114044 
	C301.899780,308.125244 301.461395,308.839966 299.976349,308.779480 
z"/>
<path fill="#DDE6E4" opacity="1.000000" stroke="none" 
	d="
M154.316788,331.038483 
	C154.780777,330.924591 155.335861,331.128723 156.057007,331.587585 
	C155.618027,331.680359 155.012955,331.518433 154.316788,331.038483 
z"/>
<path fill="#DDE6E4" opacity="1.000000" stroke="none" 
	d="
M153.145020,330.128967 
	C153.364380,330.002899 153.683167,330.128998 154.107880,330.496674 
	C153.890701,330.619202 153.567581,330.500183 153.145020,330.128967 
z"/>
<path fill="#DDE6E4" opacity="1.000000" stroke="none" 
	d="
M109.192444,308.088623 
	C109.417969,307.932312 109.780678,308.057068 110.318283,308.418152 
	C110.105331,308.559570 109.717476,308.464661 109.192444,308.088623 
z"/>
<path fill="#DDE6E4" opacity="1.000000" stroke="none" 
	d="
M167.143524,337.353058 
	C167.329041,337.231293 167.639740,337.320709 168.062378,337.636902 
	C167.822144,337.915680 167.520294,337.815857 167.143524,337.353058 
z"/>
<path fill="#DDE6E4" opacity="1.000000" stroke="none" 
	d="
M88.223351,298.031738 
	C88.458260,297.940521 88.754341,298.135254 89.167114,298.574036 
	C88.950714,298.651276 88.617622,298.484497 88.223351,298.031738 
z"/>
<path fill="#DDE6E4" opacity="1.000000" stroke="none" 
	d="
M98.184784,303.205200 
	C98.389946,303.053040 98.738693,303.153076 99.253494,303.477478 
	C99.055809,303.620361 98.692085,303.538879 98.184784,303.205200 
z"/>
<path fill="#DDE6E4" opacity="1.000000" stroke="none" 
	d="
M133.213379,320.125977 
	C133.433716,319.985199 133.776016,320.116882 134.278259,320.480225 
	C134.070602,320.607391 133.702972,320.502869 133.213379,320.125977 
z"/>
<path fill="#F9FAF9" opacity="1.000000" stroke="none" 
	d="
M248.285324,225.539703 
	C247.529480,226.264389 247.048080,226.639816 246.290955,227.162933 
	C244.886795,228.081772 243.599976,228.415344 241.961853,228.756149 
	C232.295517,232.067764 222.851318,234.855453 213.009338,236.202316 
	C210.829575,236.500610 208.782867,236.628647 206.287750,236.179138 
	C196.162430,236.727142 186.591522,235.180298 176.567810,233.907349 
	C175.684113,233.646072 175.194672,233.483841 174.418701,233.587036 
	C173.693298,233.530029 173.206146,233.364777 172.330780,233.210632 
	C168.066010,232.370468 164.059921,231.940536 160.270340,229.556946 
	C159.625885,229.194489 159.311111,229.009354 158.719940,228.809723 
	C158.090485,228.800522 157.771591,228.701965 157.252869,228.386261 
	C155.034744,227.041672 153.056381,225.792938 150.827484,224.294174 
	C148.057297,219.549469 149.350082,214.615967 148.900314,209.455795 
	C148.854233,207.948685 148.854187,206.863525 148.752899,205.383484 
	C148.651657,204.988632 148.624313,204.497299 148.647308,204.252335 
	C148.716599,203.564606 148.762894,203.121826 148.671234,202.370850 
	C147.753265,200.371216 148.110336,198.556076 147.928131,196.416183 
	C147.360580,191.537262 147.148163,187.035324 147.831238,182.103119 
	C151.091675,180.227188 153.744827,182.048584 156.394943,183.275497 
	C169.262924,189.233002 182.701050,193.620911 196.544769,198.032501 
	C200.048172,199.813873 203.214905,199.829880 206.532806,198.612183 
	C212.933975,196.262924 219.597458,194.723282 226.370453,192.281433 
	C231.322540,190.787125 235.974365,189.607040 240.857544,187.835754 
	C241.745102,187.559464 242.256912,187.398270 243.169922,187.111710 
	C243.857147,186.953796 244.138763,186.907257 244.853973,186.846527 
	C247.996201,186.987930 248.905853,188.565308 248.983932,191.115219 
	C249.155899,196.731628 249.783142,202.322632 248.685333,207.944168 
	C247.570068,213.654984 249.717087,219.444565 248.285324,225.539703 
z"/>
<path fill="#E4ECEA" opacity="1.000000" stroke="none" 
	d="
M205.475891,134.742630 
	C216.047012,137.106537 225.908676,140.377151 235.662506,145.044235 
	C236.652313,145.815552 237.475159,145.995102 238.651779,146.115509 
	C239.787109,146.418808 240.606445,146.675705 241.695312,147.125061 
	C243.123337,148.303665 244.455811,148.993195 246.150452,149.687225 
	C246.803864,149.811981 247.148651,149.840973 247.743896,149.941589 
	C248.712845,150.924576 249.899048,150.998947 251.106323,151.694946 
	C251.871490,151.974121 252.331497,152.140015 252.934174,152.511978 
	C253.997345,154.584595 257.292664,153.383301 257.432922,156.515259 
	C255.685974,158.807373 253.145935,157.496063 250.881241,158.640701 
	C244.769516,158.252563 239.762985,155.468002 234.735199,153.082779 
	C228.411942,150.082977 222.045502,147.421326 215.281891,145.581680 
	C209.857697,144.106323 205.121414,144.852676 200.857727,148.529892 
	C199.596939,149.617279 198.161057,151.186737 196.518921,150.545853 
	C190.106140,148.043121 184.102753,150.238358 177.642822,151.616074 
	C174.749619,147.592392 170.807114,147.178543 166.512421,146.967163 
	C172.036713,142.050140 179.173111,140.749390 185.800568,138.661560 
	C191.974884,136.716492 198.371140,134.770752 205.475891,134.742630 
z"/>
<path fill="#5AAFA7" opacity="1.000000" stroke="none" 
	d="
M197.106293,199.283875 
	C187.416412,197.739487 179.368927,192.550323 170.312393,190.412643 
	C162.681259,188.611389 156.419418,183.355972 148.281845,181.762573 
	C149.344971,178.090240 152.252090,174.236862 146.031281,171.693619 
	C147.847031,169.083298 149.946518,170.707428 151.685760,171.415161 
	C162.575287,175.846359 173.867203,179.158371 185.141937,183.621689 
	C185.945435,183.971252 186.399963,184.175385 187.199844,184.510559 
	C188.006348,184.816910 188.462357,185.004684 189.250595,185.359650 
	C193.582336,188.042007 198.226929,189.266083 202.413544,192.154449 
	C203.428223,199.284836 202.896194,200.004517 197.106293,199.283875 
z"/>
<path fill="#EDF0ED" opacity="1.000000" stroke="none" 
	d="
M166.054382,146.643600 
	C167.172043,146.718948 168.258286,147.168762 168.731842,146.809937 
	C173.579880,143.136551 175.029633,147.192444 176.963303,150.640472 
	C176.907944,154.821854 173.610580,155.050598 171.147568,155.931412 
	C165.536636,157.938004 160.185867,160.598663 154.507538,162.416321 
	C152.812714,162.958832 151.740997,164.170441 150.631439,165.902863 
	C148.626892,167.261810 146.717468,168.156784 145.239044,170.178192 
	C140.264648,169.361664 135.218994,169.203781 131.041245,166.026840 
	C128.995956,164.471558 128.055573,162.816193 130.743332,161.582687 
	C137.471069,158.495041 144.059509,155.001221 151.727539,153.268250 
	C154.244354,152.401596 156.430161,151.662842 158.767456,150.413452 
	C159.500504,149.840134 159.953415,149.469849 160.707184,149.074432 
	C161.193649,149.143951 161.379227,149.238617 161.706940,149.054993 
	C161.849091,148.776688 161.940079,148.918655 161.872574,148.868134 
	C162.395081,148.532593 162.894577,148.105225 163.732040,147.602081 
	C164.587097,147.170319 165.162842,146.906509 166.054382,146.643600 
z"/>
<path fill="#EAE6E3" opacity="1.000000" stroke="none" 
	d="
M145.196930,170.615356 
	C144.714371,167.392654 145.928192,165.751053 149.585632,166.002808 
	C152.348145,164.069946 154.807037,164.820908 156.967926,166.138306 
	C165.113373,171.104111 174.174026,174.057098 182.862656,177.757126 
	C189.425766,180.551987 196.657394,181.303970 203.895264,179.619339 
	C206.389282,179.038864 209.092728,177.797775 211.353821,180.843964 
	C210.030380,184.665176 206.640884,184.238281 203.969803,185.098328 
	C199.260147,186.614792 194.408401,186.964279 189.075745,186.316269 
	C188.281784,186.143677 187.904404,186.096924 187.255386,185.959518 
	C186.707443,185.645691 186.420395,185.437286 185.857880,185.216446 
	C172.618790,180.554718 159.644424,175.920227 146.297607,171.326797 
	C145.783340,171.117126 145.590500,170.915192 145.196930,170.615356 
z"/>
<path fill="#5AAFA7" opacity="1.000000" stroke="none" 
	d="
M148.586899,209.339478 
	C150.867599,213.580780 148.435211,218.702393 150.632385,223.631271 
	C146.243179,219.805939 148.329926,214.561127 148.586899,209.339478 
z"/>
<path fill="#5AAFA7" opacity="1.000000" stroke="none" 
	d="
M160.036316,229.699799 
	C163.773209,230.485596 167.605759,231.591553 171.690430,232.959625 
	C167.516998,233.957077 163.549698,233.002090 160.036316,229.699799 
z"/>
<path fill="#E4ECEA" opacity="1.000000" stroke="none" 
	d="
M158.687866,150.217148 
	C157.724289,152.919144 154.928345,152.875763 152.349091,153.475677 
	C153.688614,151.248001 156.163116,151.050354 158.687866,150.217148 
z"/>
<path fill="#5AAFA7" opacity="1.000000" stroke="none" 
	d="
M147.640167,196.287521 
	C149.096191,197.640594 148.386688,199.536682 148.614929,201.669846 
	C145.960419,200.676804 147.104034,198.518036 147.640167,196.287521 
z"/>
<path fill="#E4ECEA" opacity="1.000000" stroke="none" 
	d="
M163.719727,147.380798 
	C163.832703,148.305801 163.363388,148.860336 162.111267,148.856232 
	C162.002655,147.946884 162.587891,147.498322 163.719727,147.380798 
z"/>
<path fill="#5AAFA7" opacity="1.000000" stroke="none" 
	d="
M174.403259,233.810211 
	C174.683578,233.669968 175.186707,233.644653 175.912552,233.776154 
	C175.632202,233.930359 175.129150,233.927750 174.403259,233.810211 
z"/>
<path fill="#5AAFA7" opacity="1.000000" stroke="none" 
	d="
M157.201492,228.481964 
	C157.361435,228.327881 157.709763,228.365341 158.250824,228.599030 
	C158.092346,228.754669 157.741104,228.714096 157.201492,228.481964 
z"/>
<path fill="#E4ECEA" opacity="1.000000" stroke="none" 
	d="
M161.618027,148.780655 
	C161.811752,149.156281 161.842072,149.607819 161.114685,149.208221 
	C161.008057,149.049286 161.386963,148.784622 161.618027,148.780655 
z"/>
<path fill="#5AAFA7" opacity="1.000000" stroke="none" 
	d="
M148.542664,204.102615 
	C148.730774,204.172104 148.791229,204.336823 148.751678,204.745087 
	C148.327637,204.789917 148.248764,204.526337 148.542664,204.102615 
z"/>
<path fill="#F7FCFB" opacity="1.000000" stroke="none" 
	d="
M280.581482,213.682037 
	C281.327667,214.388718 281.860199,214.707275 282.696106,215.108032 
	C285.063019,215.883469 287.205841,215.294266 289.612213,215.818405 
	C289.929810,216.057526 290.007355,216.021057 289.977600,216.051971 
	C293.563995,218.893906 293.363007,222.670273 292.444885,227.001923 
	C292.273071,228.673950 292.260925,229.931702 292.218445,231.566132 
	C292.099091,232.388962 292.012207,232.835526 291.856201,233.616180 
	C292.397247,237.942276 291.357788,241.838150 290.975098,245.758423 
	C290.664673,248.938782 288.481720,250.627991 285.292572,250.970337 
	C281.400879,251.388092 277.777191,250.410507 273.885010,248.843399 
	C272.452698,248.445038 271.438293,247.985626 270.230133,247.192368 
	C268.720947,245.037125 266.479950,243.868652 265.612549,241.186600 
	C265.427277,240.704620 265.424469,240.536713 265.197571,240.253708 
	C264.918457,239.922134 264.863464,239.705658 264.656128,239.190796 
	C264.476288,238.716614 264.448761,238.540802 264.208313,238.204102 
	C263.104462,234.318085 262.688721,230.583527 263.750732,226.420654 
	C263.163574,222.864822 265.139587,220.626617 266.738251,218.381668 
	C268.767548,215.532028 269.571808,212.511993 269.541565,209.048889 
	C269.447235,198.246231 269.507751,187.442215 269.507507,176.638718 
	C269.507446,173.798874 269.255493,170.995651 268.394409,167.868027 
	C267.894226,163.492706 264.309113,162.226974 261.626526,159.694794 
	C260.940125,158.759369 260.678528,158.056549 260.980225,156.950256 
	C261.954285,156.253891 262.708801,156.322617 263.823914,156.716278 
	C264.178162,156.874680 264.584381,156.976532 264.767090,157.078796 
	C265.583191,157.615448 266.148621,158.137436 267.034790,158.697021 
	C268.036163,159.063492 268.770294,159.323288 269.766174,159.717896 
	C277.547302,163.395020 280.168091,169.477158 280.085663,177.566055 
	C279.964355,189.471054 279.532013,201.391754 280.581482,213.682037 
z"/>
<path fill="#6EDEBB" opacity="1.000000" stroke="none" 
	d="
M268.738892,165.511505 
	C270.679840,168.643204 271.049896,171.895020 271.034760,175.226547 
	C270.979034,187.483078 270.859375,199.739990 270.926392,211.995865 
	C270.940308,214.542099 269.910767,216.299774 268.461273,218.216980 
	C266.781525,220.438660 265.591003,223.030228 263.958923,225.741714 
	C259.355072,227.893967 254.979797,229.749008 250.193527,226.231201 
	C254.552444,220.852692 253.472549,214.586777 253.518723,208.565048 
	C253.558319,203.401901 253.578094,198.237518 253.499130,193.074966 
	C253.469315,191.124832 253.773575,188.995956 251.423157,187.453247 
	C248.959396,186.030716 246.649780,186.313339 244.395325,186.517426 
	C242.551025,186.684372 240.731339,186.962463 239.690887,184.980896 
	C238.634537,182.969055 239.909012,181.603592 241.391739,179.954346 
	C243.517990,175.673004 248.187073,176.122803 251.404358,173.523636 
	C257.924133,172.025238 262.693787,167.739426 268.738892,165.511505 
z"/>
<path fill="#E9EAE6" opacity="1.000000" stroke="none" 
	d="
M250.740479,186.178787 
	C253.777298,185.852097 255.191803,186.639114 255.164764,189.631241 
	C255.073517,199.726044 255.013168,209.824554 255.205322,219.916626 
	C255.273865,223.517487 252.635788,224.128677 250.194916,225.679840 
	C249.532654,225.956558 249.096481,225.959656 248.335587,225.925873 
	C246.778305,217.492477 246.491684,209.088669 248.009140,200.699860 
	C248.662704,197.086792 246.278503,193.663101 247.695831,189.916153 
	C248.395416,188.066696 246.351151,188.127747 244.676331,188.025940 
	C245.371140,184.419144 248.279297,186.625977 250.740479,186.178787 
z"/>
<path fill="#CDF9F3" opacity="1.000000" stroke="none" 
	d="
M280.830048,213.596695 
	C278.213135,213.303406 279.077454,211.133759 279.065521,209.473572 
	C278.992889,199.333710 278.553314,189.164352 279.169708,179.061798 
	C279.668793,170.881470 277.087982,164.850739 270.154266,160.177185 
	C276.995453,161.788147 280.768982,167.059662 280.809479,175.161896 
	C280.872711,187.815445 280.850830,200.469437 280.830048,213.596695 
z"/>
<path fill="#CDF9F3" opacity="1.000000" stroke="none" 
	d="
M263.970642,156.583740 
	C263.379120,156.917999 262.580048,156.961319 261.381958,157.001709 
	C260.634552,157.360809 260.221863,157.624924 259.383423,157.854736 
	C258.509552,157.866364 258.032410,157.735046 257.322388,157.239395 
	C257.052460,154.446091 253.857330,155.321808 253.173370,153.066101 
	C256.840424,153.307236 260.428741,154.420486 263.970642,156.583740 
z"/>
<path fill="#CDF9F3" opacity="1.000000" stroke="none" 
	d="
M292.596863,227.195190 
	C291.448364,223.909561 293.079376,219.887100 290.010620,216.458359 
	C294.159180,218.239960 294.862305,220.826508 292.596863,227.195190 
z"/>
<path fill="#CDF9F3" opacity="1.000000" stroke="none" 
	d="
M246.284821,149.489944 
	C244.643173,150.076401 242.927887,150.124802 242.035980,147.656464 
	C243.694138,147.177612 244.987167,148.000137 246.284821,149.489944 
z"/>
<path fill="#CDF9F3" opacity="1.000000" stroke="none" 
	d="
M289.692108,215.743256 
	C287.815369,215.931580 285.700928,215.805634 283.292969,215.434967 
	C285.164307,214.913177 287.328186,214.662109 289.692108,215.743256 
z"/>
<path fill="#CDF9F3" opacity="1.000000" stroke="none" 
	d="
M251.231598,151.512360 
	C250.170822,151.907852 248.818619,152.351379 248.062988,150.378754 
	C249.192780,149.958679 250.291702,150.156998 251.231598,151.512360 
z"/>
<path fill="#6EDEBB" opacity="1.000000" stroke="none" 
	d="
M270.063782,247.330704 
	C271.186462,247.005432 272.349121,247.132599 273.340515,248.476532 
	C272.243500,248.893158 270.842590,249.394714 270.063782,247.330704 
z"/>
<path fill="#CDF9F3" opacity="1.000000" stroke="none" 
	d="
M238.773438,145.885086 
	C237.869232,147.212250 236.885193,147.317398 236.036438,145.519226 
	C236.844269,145.352341 237.711685,145.480301 238.773438,145.885086 
z"/>
<path fill="#6EDEBB" opacity="1.000000" stroke="none" 
	d="
M242.035004,228.896408 
	C242.877182,228.304214 244.112411,227.758255 245.681427,227.261475 
	C245.528015,229.412018 243.865356,228.929657 242.035004,228.896408 
z"/>
<path fill="#CDF9F3" opacity="1.000000" stroke="none" 
	d="
M267.168823,158.520630 
	C266.345245,158.972839 265.509277,158.868332 265.018433,157.503647 
	C265.869202,157.090775 266.546600,157.478195 267.168823,158.520630 
z"/>
<path fill="#CDF9F3" opacity="1.000000" stroke="none" 
	d="
M292.015869,233.832535 
	C291.109772,233.392578 291.063080,232.805359 291.944183,232.064148 
	C292.772156,232.514847 292.802887,233.105301 292.015869,233.832535 
z"/>
<path fill="#6EDEBB" opacity="1.000000" stroke="none" 
	d="
M265.025757,240.276794 
	C265.234772,240.160019 265.412201,240.292923 265.467926,240.704926 
	C265.281342,240.744156 265.164001,240.591614 265.025757,240.276794 
z"/>
<path fill="#6EDEBB" opacity="1.000000" stroke="none" 
	d="
M264.042542,238.207336 
	C264.266571,238.104874 264.455811,238.263855 264.533417,238.706284 
	C264.318054,238.756729 264.180054,238.583084 264.042542,238.207336 
z"/>
<path fill="#69CEB8" opacity="1.000000" stroke="none" 
	d="
M196.996796,199.409119 
	C202.338364,200.291992 201.384766,196.001389 201.911316,192.552200 
	C203.470215,189.536255 206.322021,189.399673 208.819473,188.675507 
	C213.129608,187.425751 217.418777,186.072861 222.231567,185.432709 
	C224.328690,190.370834 224.328690,190.370834 227.185608,192.797180 
	C219.714722,195.556015 212.378036,198.057404 204.984436,200.377441 
	C202.409576,201.185410 199.740601,201.065170 196.996796,199.409119 
z"/>
<path fill="#6AD6B8" opacity="1.000000" stroke="none" 
	d="
M227.465912,193.106079 
	C226.549362,192.780746 226.005432,192.110413 225.503540,192.140533 
	C220.250656,192.455765 220.671249,190.092834 222.944061,186.449493 
	C228.246185,180.743958 235.133682,179.915649 242.432053,179.379547 
	C240.170685,185.041672 240.170654,185.028854 246.815414,185.009796 
	C248.103699,185.006104 249.453278,184.757172 250.888794,185.921753 
	C249.238770,187.887924 246.759888,186.519943 244.505737,187.734497 
	C244.067657,188.065231 243.834564,188.113571 243.255066,188.248596 
	C242.721527,188.417496 242.534393,188.499710 242.074646,188.722168 
	C237.154037,190.270355 232.506027,191.678299 227.465912,193.106079 
z"/>
<path fill="#E9EAE6" opacity="1.000000" stroke="none" 
	d="
M242.019028,188.852188 
	C241.932083,188.565323 242.153030,188.372528 242.686752,188.309662 
	C242.753906,188.596298 242.529694,188.765182 242.019028,188.852188 
z"/>
<path fill="#FCFBFB" opacity="1.000000" stroke="none" 
	d="
M211.331100,181.206360 
	C208.288940,178.580917 205.652832,180.883377 203.039993,181.233658 
	C194.719437,182.349075 187.098267,180.870010 179.160904,177.835602 
	C169.570206,174.169113 161.002304,168.102112 150.392242,166.002686 
	C150.014481,159.238419 156.365555,161.108582 159.752975,159.124374 
	C165.061890,156.014633 171.505203,155.216354 176.839142,151.304474 
	C183.408157,149.045166 189.713593,145.804001 196.561783,149.590057 
	C196.944153,149.801453 197.946930,149.445557 198.318726,149.039978 
	C207.317078,139.223740 216.863113,144.214554 226.401108,147.902466 
	C234.448730,151.014099 241.949722,155.406036 250.588196,158.024063 
	C254.065582,158.832870 256.790192,160.377441 259.147827,162.480484 
	C261.023651,164.153793 261.066467,165.915695 258.630157,167.189438 
	C256.290924,168.412369 253.876938,169.489624 251.153809,170.829803 
	C238.910004,174.470108 226.907532,177.529816 215.045197,181.086121 
	C213.937088,181.418320 212.828720,181.795807 211.331100,181.206360 
z"/>
<path fill="#DCE3E2" opacity="1.000000" stroke="none" 
	d="
M250.755188,170.338989 
	C252.908325,168.065918 255.435577,167.183914 257.840668,166.241196 
	C260.617859,165.152603 259.849518,164.195374 258.064056,163.046295 
	C255.768097,161.568680 253.428528,160.158783 251.036957,158.378647 
	C252.057358,154.209244 254.675293,158.154922 256.676880,156.980316 
	C257.483795,156.980240 257.903809,156.991882 258.639374,157.014755 
	C259.672516,157.781357 260.584930,158.221497 261.763794,158.806305 
	C264.298309,161.025024 267.950684,161.483978 269.023621,165.322021 
	C264.040558,169.169067 259.086029,172.884506 252.473297,174.200104 
	C250.502182,173.524826 250.034882,172.323807 250.755188,170.338989 
z"/>
<path fill="#D6DEDC" opacity="1.000000" stroke="none" 
	d="
M250.592346,169.995285 
	C251.262985,171.161835 251.531769,172.344986 251.945465,173.876801 
	C249.881958,177.304276 245.757904,176.755524 242.947357,179.262421 
	C236.260147,181.148163 229.795807,182.977982 223.306335,185.904022 
	C216.224075,188.049118 209.459320,190.007126 202.321564,192.083466 
	C197.239517,191.397629 193.213379,188.980637 188.881012,186.476685 
	C195.962845,184.647629 203.639572,184.867447 210.792725,181.255096 
	C224.074860,177.308487 237.132675,173.660187 250.592346,169.995285 
z"/>
<path fill="#D6DEDC" opacity="1.000000" stroke="none" 
	d="
M185.776245,185.392044 
	C185.944733,185.271637 186.296310,185.354095 186.815826,185.652710 
	C186.642288,185.777542 186.300812,185.686218 185.776245,185.392044 
z"/>
<path fill="#E0E8E5" opacity="1.000000" stroke="none" 
	d="
M275.406982,230.289932 
	C274.626373,227.259857 275.430756,224.850403 278.365417,224.514618 
	C280.793823,224.236740 282.376404,225.958374 282.262360,228.802185 
	C280.250671,230.791885 278.277679,231.777054 275.406982,230.289932 
z"/>
<path fill="#D2DBD8" opacity="1.000000" stroke="none" 
	d="
M275.093750,230.398666 
	C277.174377,230.085876 279.270752,229.991714 281.634613,229.045746 
	C280.150360,234.007217 278.637939,234.394058 275.093750,230.398666 
z"/>
<path fill="#E4ECEA" opacity="1.000000" stroke="none" 
	d="
M261.892059,158.738647 
	C260.864441,158.944672 259.593933,159.192657 259.023926,157.366302 
	C259.405884,157.014801 259.856812,157.003601 260.645325,156.995590 
	C261.249481,157.492508 261.516052,157.986237 261.892059,158.738647 
z"/>
</svg>